<svg width="72" height="72" viewBox="0 0 72 72" fill="none" xmlns="http://www.w3.org/2000/svg">
<path d="M0 30.1284C0 58.6999 0.0144 60.2712 0.2592 60.3432C0.3888 60.3865 0.6192 60.4874 0.7488 60.5595C0.8928 60.6315 1.1376 60.6892 1.2816 60.6892C1.44 60.6892 1.6128 60.7613 1.656 60.8334C1.6992 60.9199 1.9008 60.9775 2.088 60.9775C2.2752 60.9775 2.4768 61.0352 2.52 61.1217C2.5632 61.1938 2.736 61.2658 2.8944 61.2658C3.0384 61.2658 3.2832 61.3235 3.4272 61.3956C3.5568 61.4821 4.0608 61.6406 4.536 61.7704C5.4 62.0154 5.8896 62.1884 6.3648 62.4335C6.5088 62.5056 6.7536 62.5632 6.8976 62.5632C7.056 62.5632 7.2288 62.6209 7.272 62.7074C7.3152 62.7795 7.5168 62.8515 7.704 62.8515C7.8912 62.8515 8.0928 62.9236 8.136 62.9957C8.1792 63.0822 8.352 63.1398 8.5104 63.1398C8.6544 63.1398 8.8992 63.1975 9.0432 63.2696C9.1728 63.3417 9.8784 63.5867 10.584 63.803C11.304 64.0192 11.9376 64.2498 12.0096 64.3219C12.096 64.3796 12.2976 64.4372 12.4704 64.4372C12.6576 64.4372 12.8448 64.4949 12.888 64.5814C12.9312 64.6535 13.1328 64.7255 13.32 64.7255C13.5072 64.7255 13.7088 64.7832 13.752 64.8697C13.7952 64.9418 13.968 65.0139 14.1264 65.0139C14.2704 65.0139 14.5152 65.0715 14.6592 65.1436C14.7888 65.2157 15.4944 65.4607 16.2 65.677C16.92 65.8932 17.5536 66.1238 17.6256 66.1959C17.712 66.2536 17.9136 66.3112 18.0864 66.3112C18.2736 66.3112 18.4608 66.3689 18.504 66.4554C18.5472 66.5275 18.72 66.5996 18.8784 66.5996C19.0224 66.5996 19.2672 66.6572 19.4112 66.7437C19.5408 66.8158 20.2464 67.0464 20.952 67.2627C21.672 67.4789 22.3056 67.7096 22.3776 67.7816C22.464 67.8393 22.6656 67.897 22.8384 67.897C23.0256 67.897 23.2128 67.969 23.256 68.0411C23.2992 68.1276 23.5008 68.1853 23.688 68.1853C23.8752 68.1853 24.0768 68.2573 24.12 68.3294C24.1632 68.4159 24.336 68.4736 24.4944 68.4736C24.6384 68.4736 24.8832 68.5312 25.0272 68.6033C25.1568 68.6898 25.6608 68.8484 26.136 68.9781C27 69.2232 27.4896 69.3962 27.9648 69.6412C28.1088 69.7133 28.3536 69.771 28.4976 69.771C28.656 69.771 28.8288 69.8286 28.872 69.9151C28.9152 69.9872 29.1168 70.0593 29.304 70.0593C29.4912 70.0593 29.6928 70.1169 29.736 70.2034C29.7792 70.2755 29.952 70.3476 30.1104 70.3476C30.2544 70.3476 30.4992 70.4052 30.6432 70.4773C30.7728 70.5494 31.4784 70.7945 32.184 71.0107C32.904 71.2269 33.5376 71.4576 33.6096 71.5297C33.696 71.5873 33.8832 71.645 34.056 71.645C34.2288 71.645 34.4448 71.7315 34.5312 71.818C34.776 72.063 36.8496 72.063 37.3824 71.8036C37.6128 71.7026 37.9152 71.5585 38.0448 71.4864C38.1888 71.4143 38.4192 71.3567 38.5632 71.3567C38.7072 71.3567 38.88 71.299 38.9664 71.2413C39.0384 71.1693 39.4848 70.9963 39.96 70.8665C40.8096 70.6215 41.3136 70.4341 41.7888 70.189C41.9328 70.1169 42.1488 70.0593 42.264 70.0593C42.3792 70.0593 42.6096 70.0016 42.768 69.9151C42.9264 69.843 43.1856 69.6989 43.344 69.6268C43.5024 69.5403 43.7472 69.4827 43.8912 69.4827C44.0352 69.4827 44.208 69.425 44.2944 69.3673C44.3664 69.2953 44.8128 69.1223 45.288 68.9925C45.7632 68.8628 46.2672 68.6898 46.3968 68.6033C46.5408 68.5312 46.7856 68.4736 46.944 68.4736C47.1024 68.4736 47.232 68.4015 47.232 68.3294C47.232 68.2429 47.376 68.1853 47.5632 68.1853C47.7504 68.1853 47.952 68.1276 48.0384 68.0699C48.1104 67.9979 48.456 67.8537 48.816 67.7528C49.176 67.6375 49.536 67.5077 49.608 67.4645C49.6944 67.4068 50.1696 67.2483 50.688 67.1041C51.2064 66.9599 51.6816 66.787 51.768 66.7149C51.84 66.6572 52.0416 66.5996 52.2288 66.5996C52.416 66.5996 52.56 66.5275 52.56 66.4554C52.56 66.3689 52.704 66.3112 52.8912 66.3112C53.0784 66.3112 53.28 66.2536 53.3664 66.1959C53.4384 66.1383 53.7552 65.9941 54.072 65.8932C54.3888 65.7923 54.7776 65.6626 54.936 65.5905C55.0944 65.5184 55.6128 65.3598 56.088 65.2157C56.5632 65.0859 57.0096 64.9129 57.096 64.8409C57.168 64.7832 57.3696 64.7255 57.5568 64.7255C57.744 64.7255 57.888 64.6535 57.888 64.5814C57.888 64.4949 58.032 64.4372 58.2192 64.4372C58.4064 64.4372 58.608 64.3796 58.68 64.3219C58.7664 64.2642 59.0832 64.1201 59.4 64.0192C59.7168 63.9183 60.1056 63.7885 60.264 63.7165C60.4224 63.6444 60.9408 63.4858 61.416 63.3417C61.8912 63.2119 62.3376 63.0389 62.424 62.9669C62.496 62.9092 62.6688 62.8515 62.8128 62.8515C62.9568 62.8515 63.2016 62.7939 63.36 62.7074C63.5184 62.6353 63.7776 62.5056 63.936 62.4191C64.0944 62.347 64.3392 62.2749 64.4832 62.2749C64.6272 62.2749 64.8 62.2172 64.8864 62.1596C64.9584 62.0875 65.4048 61.9145 65.88 61.7704C66.8016 61.4965 67.3056 61.3091 67.7088 61.1073C67.8528 61.0352 68.0976 60.9775 68.256 60.9775C68.4144 60.9775 68.544 60.9054 68.544 60.8334C68.544 60.7469 68.688 60.6892 68.8752 60.6892C69.0624 60.6892 69.264 60.6315 69.3504 60.5739C69.4224 60.5018 70.0416 60.2712 70.7472 60.0405L72 59.6369V29.8256V0H36H0V30.1284ZM36.7488 13.5506C37.08 13.7091 37.4112 13.8389 37.4976 13.8389C37.5696 13.8389 37.9152 13.9686 38.2608 14.1272C38.6064 14.2857 39.1536 14.5452 39.4992 14.7038C39.8448 14.8624 40.1904 14.9921 40.2624 14.9921C40.3488 14.9921 40.752 15.1507 41.1552 15.3525C41.5728 15.5543 42.0336 15.7129 42.192 15.7129C42.3504 15.7129 42.48 15.7705 42.48 15.8282C42.48 15.9003 42.7536 16.0733 43.0992 16.2174C43.4304 16.3616 44.064 16.6355 44.496 16.8373C44.928 17.0391 45.3888 17.1977 45.504 17.1977C45.6192 17.1977 45.8784 17.313 46.0656 17.4716C46.2528 17.6157 46.4976 17.7311 46.5984 17.7311C46.7136 17.7311 46.9152 17.7887 47.0592 17.8608C47.6208 18.1779 48.96 18.7401 49.104 18.7401C49.1904 18.7401 49.3632 18.841 49.4784 18.9564C49.608 19.0717 49.8096 19.1726 49.9536 19.1726C50.0976 19.1726 50.5152 19.3312 50.8896 19.533C51.264 19.7348 51.6816 19.8934 51.8256 19.8934C51.9696 19.8934 52.1712 19.9799 52.2576 20.0952C52.344 20.1961 52.8048 20.3979 53.2656 20.5277C53.7264 20.6574 54.1872 20.8592 54.288 20.9745C54.3888 21.0899 54.5616 21.1908 54.6624 21.1908C54.7776 21.1908 54.9792 21.2484 55.1232 21.3205C55.7712 21.6665 57.0528 22.1999 57.2256 22.1999C57.3264 22.1999 57.4992 22.3008 57.6 22.4161C57.7008 22.5314 57.9312 22.6323 58.1184 22.6323C58.3056 22.6323 58.464 22.69 58.464 22.7765C58.464 22.8485 58.536 22.9206 58.608 22.9206C58.752 22.9206 62.5392 24.5063 64.3392 25.3136C64.7568 25.501 65.1456 25.6596 65.2032 25.6596C65.2608 25.6596 65.664 25.8326 66.096 26.0344C66.528 26.2362 67.0896 26.4957 67.32 26.5966C67.5648 26.6975 67.9104 26.8416 68.112 26.9281C68.904 27.2741 70.128 27.7931 70.8912 28.0958C71.2944 28.2544 71.424 28.5427 71.1072 28.5427C71.0064 28.5427 55.1376 28.5427 35.856 28.5427C4.7232 28.5427 0.792 28.5283 0.7488 28.3264C0.72 28.1967 0.8496 28.0525 1.08 27.966C1.2816 27.894 1.8144 27.6633 2.2464 27.4615C2.6784 27.2597 3.0816 27.1011 3.1536 27.1011C3.2256 27.1011 3.672 26.8993 4.1472 26.6687C4.6368 26.4236 5.112 26.2362 5.2272 26.2362C5.3424 26.2362 5.5152 26.1353 5.616 26.02C5.7168 25.9046 5.904 25.8037 6.0336 25.8037C6.1776 25.8037 6.5952 25.6452 6.9984 25.4578C8.0208 24.9676 9.7488 24.218 9.864 24.218C9.9072 24.218 10.3248 24.045 10.7712 23.8432C11.2176 23.627 11.8512 23.3387 12.168 23.1945C12.4848 23.0648 13.176 22.7476 13.6944 22.5026C14.2272 22.2575 14.76 22.0557 14.8752 22.0557C14.9904 22.0557 15.1632 21.9548 15.264 21.8395C15.3648 21.7241 15.552 21.6232 15.696 21.6232C15.84 21.6232 16.3008 21.4502 16.7328 21.2484C17.1504 21.0322 17.6544 20.8015 17.856 20.7295C18.0576 20.6574 18.4032 20.4988 18.6192 20.3835C18.8496 20.2682 19.0944 20.1817 19.1664 20.1817C19.2528 20.1817 19.656 20.0231 20.0592 19.8357C20.4768 19.6483 21.2976 19.2879 21.888 19.0284C22.4784 18.769 23.3712 18.3653 23.8752 18.1347C24.3648 17.9184 24.8256 17.7311 24.8832 17.7311C24.9552 17.7311 25.272 17.6013 25.6032 17.4427C25.92 17.2842 26.28 17.1544 26.3952 17.1544C26.5104 17.1544 26.6832 17.0535 26.784 16.9382C26.8848 16.8229 27.1008 16.722 27.2736 16.722C27.4464 16.722 27.648 16.6643 27.7344 16.5922C27.8064 16.5346 28.4544 16.2318 29.16 15.9291C30.3264 15.439 31.5792 14.8912 33.8112 13.8965C34.2288 13.7091 34.6608 13.5506 34.776 13.5506C34.8768 13.5506 35.0208 13.4785 35.064 13.4064C35.208 13.1613 36.1152 13.2478 36.7488 13.5506ZM62.568 32.06C64.4976 32.6799 66.2112 34.4242 66.888 36.4712C67.032 36.9469 67.0896 39.5129 66.9456 39.7867C66.888 39.9021 66.6576 40.3922 66.4416 40.8679C66.0096 41.8049 64.224 43.7078 63.5328 43.9961C62.5392 44.3997 60.6096 44.5583 60.0768 44.27C59.9184 44.1835 59.616 44.1114 59.4 44.1114C58.5216 44.1114 57.096 42.987 56.4048 41.7473C55.872 40.7958 55.8576 39.3831 56.3616 38.4894C56.8944 37.5523 57.9024 36.4712 58.248 36.4712C58.4208 36.4712 58.6224 36.3991 58.7088 36.3126C58.7952 36.2261 59.2992 36.154 59.8464 36.1396C60.6672 36.1108 60.912 36.1685 61.3008 36.4424C61.8768 36.846 62.5248 38.1146 62.4096 38.6191C62.2656 39.2678 61.8768 39.9021 61.5312 40.0606C60.9696 40.3201 59.8896 40.248 59.3712 39.9309L58.896 39.6426V39.9886C58.896 40.4643 59.76 41.1851 60.4368 41.3004C60.7392 41.3436 61.0992 41.4157 61.2576 41.4445C61.4016 41.4734 61.632 41.4445 61.7616 41.3869C61.8912 41.3148 62.1792 41.1706 62.4096 41.0697C63.3312 40.6373 63.9216 39.066 63.72 37.5523C63.648 36.8892 63.5184 36.6298 63.1008 36.154C62.8272 35.8369 62.3376 35.4621 62.0352 35.3035C61.5024 35.0296 60.9264 35.0296 35.856 35.0296C10.3536 35.0296 10.2096 35.0296 9.648 35.3179C8.208 36.0531 7.56 37.437 7.9056 39.0371C8.1072 39.9021 8.5104 40.6517 8.9712 40.94C9.36 41.1706 9.7344 41.2571 10.6992 41.3292C11.52 41.4013 11.5344 41.3869 12.1824 40.7526C12.6 40.3201 12.7872 40.0318 12.7296 39.8732C12.6576 39.6714 12.6 39.6714 12.24 39.9309C11.6352 40.3634 10.512 40.3201 9.9648 39.8588C9.4464 39.4264 9.072 38.547 9.1728 38.0281C9.216 37.8118 9.5616 37.3073 9.936 36.8748L10.6128 36.1108L11.6784 36.1252C12.7872 36.154 13.4352 36.3991 14.2416 37.1055C14.9328 37.7253 15.696 39.2534 15.696 40.0751C15.696 40.4354 15.3792 41.4445 15.0912 42.0067C15.0192 42.1797 14.6016 42.641 14.1696 43.0591C13.464 43.751 12.6576 44.1546 11.952 44.1835C11.8368 44.1835 11.6496 44.2411 11.5344 44.3132C11.0592 44.6159 8.9136 44.3276 7.9056 43.8231C7.0992 43.405 5.616 41.8626 5.1984 40.9976C5.0256 40.6084 4.824 40.1904 4.7664 40.0751C4.7088 39.9597 4.6368 39.1381 4.6224 38.2443L4.5936 36.6442L5.184 35.4333C5.7456 34.3233 6.8256 33.0115 7.1856 33.0115C7.2576 33.0115 7.3872 32.925 7.4448 32.8241C7.6176 32.5213 8.8272 32.0024 9.3312 32.0024C9.576 32.0024 9.8208 31.9303 9.864 31.8582C9.9216 31.7573 18.6048 31.7285 35.8272 31.7429C60.8832 31.7861 61.7328 31.8006 62.568 32.06ZM23.2128 37.264C23.5728 37.4659 24.0336 37.8695 24.2496 38.1722C24.624 38.72 24.624 38.7488 24.624 41.3148C24.624 42.7275 24.5664 43.9672 24.5088 44.0681C24.3792 44.27 20.0592 44.2988 19.9296 44.097C19.8864 44.0249 19.8576 42.7419 19.8576 41.2283V38.4894L20.2464 37.9704C20.7072 37.3794 21.4848 36.9469 22.1184 36.9181C22.3632 36.9036 22.8672 37.0622 23.2128 37.264ZM31.896 37.0478C31.9392 37.1199 32.0976 37.192 32.2416 37.192C32.3712 37.192 32.7024 37.4082 32.9472 37.6677L33.408 38.1434L33.4224 40.9544C33.4224 42.4969 33.4224 43.8375 33.408 43.9384C33.408 44.0826 32.9328 44.1114 31.3056 44.0826L29.1888 44.0393V41.1418V38.2443L29.6064 37.7109C29.8368 37.4226 30.1392 37.192 30.2688 37.192C30.3984 37.192 30.5568 37.1199 30.6 37.0478C30.6432 36.9613 30.9456 36.9037 31.248 36.9037C31.5504 36.9037 31.8528 36.9613 31.896 37.0478ZM41.4 37.264C41.7312 37.4659 42.192 37.8839 42.3936 38.1866L42.768 38.7344L42.7392 41.4445L42.696 44.1546L40.392 44.1402L38.088 44.1258L38.0448 41.358C38.0016 38.1578 38.0736 37.8695 39.0672 37.2929C39.8736 36.8172 40.608 36.8027 41.4 37.264ZM50.5296 37.3073C50.7312 37.437 51.048 37.6965 51.2208 37.8983C51.5232 38.2587 51.5376 38.3884 51.552 41.0986C51.552 43.1023 51.5088 43.9528 51.3792 44.0826C51.1344 44.3276 47.5056 44.3276 47.2608 44.0826C47.1312 43.9528 47.088 43.0735 47.088 40.9976V38.1001L47.8368 37.5091C48.5424 36.9613 48.6288 36.9325 49.3632 37.0046C49.7952 37.0334 50.3136 37.1775 50.5296 37.3073ZM35.8416 46.7062C49.1904 46.7062 60.2496 46.6774 60.408 46.6629C60.6816 46.6341 60.696 46.7206 60.696 47.9315V49.2289L35.8272 49.2721L10.944 49.301V48.0324C10.944 46.7062 11.0016 46.5044 11.3472 46.6341C11.4624 46.6774 22.4784 46.7062 35.8416 46.7062Z" fill="white"/>
</svg>
